<mxfile host="65bd71144e">
    <diagram id="Q6GSx2G-1LwNMlGcUw1Q" name="Page-1">
        <mxGraphModel dx="2260" dy="1568" grid="1" gridSize="10" guides="1" tooltips="1" connect="1" arrows="1" fold="1" page="1" pageScale="1" pageWidth="2000" pageHeight="2000" math="0" shadow="0">
            <root>
                <mxCell id="0"/>
                <mxCell id="1" parent="0"/>
                <mxCell id="423" value="Account" style="swimlane;fontStyle=0;align=center;verticalAlign=top;childLayout=stackLayout;horizontal=1;startSize=30;horizontalStack=0;resizeParent=1;resizeParentMax=0;resizeLast=0;collapsible=0;marginBottom=0;html=1;" parent="1" vertex="1">
                    <mxGeometry x="790" y="50" width="140" height="178" as="geometry"/>
                </mxCell>
                <mxCell id="424" value="attributes" style="text;html=1;strokeColor=none;fillColor=none;align=center;verticalAlign=middle;spacingLeft=4;spacingRight=4;overflow=hidden;rotatable=0;points=[[0,0.5],[1,0.5]];portConstraint=eastwest;" parent="423" vertex="1">
                    <mxGeometry y="30" width="140" height="20" as="geometry"/>
                </mxCell>
                <mxCell id="425" value="id" style="text;html=1;strokeColor=none;fillColor=none;align=left;verticalAlign=middle;spacingLeft=4;spacingRight=4;overflow=hidden;rotatable=0;points=[[0,0.5],[1,0.5]];portConstraint=eastwest;" parent="423" vertex="1">
                    <mxGeometry y="50" width="140" height="20" as="geometry"/>
                </mxCell>
                <mxCell id="426" value="&lt;b&gt;name&lt;/b&gt;" style="text;html=1;strokeColor=none;fillColor=none;align=left;verticalAlign=middle;spacingLeft=4;spacingRight=4;overflow=hidden;rotatable=0;points=[[0,0.5],[1,0.5]];portConstraint=eastwest;fontColor=#808080;" parent="423" vertex="1">
                    <mxGeometry y="70" width="140" height="20" as="geometry"/>
                </mxCell>
                <mxCell id="427" value="document" style="text;html=1;strokeColor=none;fillColor=none;align=left;verticalAlign=middle;spacingLeft=4;spacingRight=4;overflow=hidden;rotatable=0;points=[[0,0.5],[1,0.5]];portConstraint=eastwest;" parent="423" vertex="1">
                    <mxGeometry y="90" width="140" height="20" as="geometry"/>
                </mxCell>
                <mxCell id="434" value="email" style="text;html=1;strokeColor=none;fillColor=none;align=left;verticalAlign=middle;spacingLeft=4;spacingRight=4;overflow=hidden;rotatable=0;points=[[0,0.5],[1,0.5]];portConstraint=eastwest;" parent="423" vertex="1">
                    <mxGeometry y="110" width="140" height="20" as="geometry"/>
                </mxCell>
                <mxCell id="436" value="password" style="text;html=1;strokeColor=none;fillColor=none;align=left;verticalAlign=middle;spacingLeft=4;spacingRight=4;overflow=hidden;rotatable=0;points=[[0,0.5],[1,0.5]];portConstraint=eastwest;" parent="423" vertex="1">
                    <mxGeometry y="130" width="140" height="20" as="geometry"/>
                </mxCell>
                <mxCell id="428" value="" style="line;strokeWidth=1;fillColor=none;align=left;verticalAlign=middle;spacingTop=-1;spacingLeft=3;spacingRight=3;rotatable=0;labelPosition=right;points=[];portConstraint=eastwest;" parent="423" vertex="1">
                    <mxGeometry y="150" width="140" height="8" as="geometry"/>
                </mxCell>
                <mxCell id="429" value="operations" style="text;html=1;strokeColor=none;fillColor=none;align=center;verticalAlign=middle;spacingLeft=4;spacingRight=4;overflow=hidden;rotatable=0;points=[[0,0.5],[1,0.5]];portConstraint=eastwest;" parent="423" vertex="1">
                    <mxGeometry y="158" width="140" height="20" as="geometry"/>
                </mxCell>
                <mxCell id="442" style="edgeStyle=orthogonalEdgeStyle;html=1;endArrow=block;endFill=0;" parent="1" source="437" edge="1">
                    <mxGeometry relative="1" as="geometry">
                        <mxPoint x="850" y="230" as="targetPoint"/>
                    </mxGeometry>
                </mxCell>
                <mxCell id="437" value="Driver" style="swimlane;fontStyle=0;align=center;verticalAlign=top;childLayout=stackLayout;horizontal=1;startSize=40;horizontalStack=0;resizeParent=1;resizeParentMax=0;resizeLast=0;collapsible=0;marginBottom=0;html=1;" parent="1" vertex="1">
                    <mxGeometry x="340" y="270" width="140" height="70" as="geometry"/>
                </mxCell>
                <mxCell id="441" style="edgeStyle=orthogonalEdgeStyle;html=1;endArrow=block;endFill=0;" parent="1" source="439" edge="1">
                    <mxGeometry relative="1" as="geometry">
                        <mxPoint x="870" y="230" as="targetPoint"/>
                    </mxGeometry>
                </mxCell>
                <mxCell id="439" value="User" style="swimlane;fontStyle=0;align=center;verticalAlign=top;childLayout=stackLayout;horizontal=1;startSize=40;horizontalStack=0;resizeParent=1;resizeParentMax=0;resizeLast=0;collapsible=0;marginBottom=0;html=1;" parent="1" vertex="1">
                    <mxGeometry x="1170" y="270" width="140" height="70" as="geometry"/>
                </mxCell>
                <mxCell id="527" style="edgeStyle=orthogonalEdgeStyle;html=1;endArrow=diamond;endFill=1;" parent="1" source="443" edge="1" target="523">
                    <mxGeometry relative="1" as="geometry">
                        <mxPoint x="870" y="440" as="targetPoint"/>
                        <Array as="points">
                            <mxPoint x="1040" y="739"/>
                            <mxPoint x="1040" y="590"/>
                            <mxPoint x="860" y="590"/>
                        </Array>
                    </mxGeometry>
                </mxCell>
                <mxCell id="443" value="Payments" style="swimlane;fontStyle=0;align=center;verticalAlign=top;childLayout=stackLayout;horizontal=1;startSize=30;horizontalStack=0;resizeParent=1;resizeParentMax=0;resizeLast=0;collapsible=0;marginBottom=0;html=1;" parent="1" vertex="1">
                    <mxGeometry x="1336" y="690" width="140" height="98" as="geometry"/>
                </mxCell>
                <mxCell id="444" value="attributes" style="text;html=1;strokeColor=none;fillColor=none;align=center;verticalAlign=middle;spacingLeft=4;spacingRight=4;overflow=hidden;rotatable=0;points=[[0,0.5],[1,0.5]];portConstraint=eastwest;" parent="443" vertex="1">
                    <mxGeometry y="30" width="140" height="20" as="geometry"/>
                </mxCell>
                <mxCell id="445" value="id" style="text;html=1;strokeColor=none;fillColor=none;align=left;verticalAlign=middle;spacingLeft=4;spacingRight=4;overflow=hidden;rotatable=0;points=[[0,0.5],[1,0.5]];portConstraint=eastwest;" parent="443" vertex="1">
                    <mxGeometry y="50" width="140" height="20" as="geometry"/>
                </mxCell>
                <mxCell id="450" value="" style="line;strokeWidth=1;fillColor=none;align=left;verticalAlign=middle;spacingTop=-1;spacingLeft=3;spacingRight=3;rotatable=0;labelPosition=right;points=[];portConstraint=eastwest;" parent="443" vertex="1">
                    <mxGeometry y="70" width="140" height="8" as="geometry"/>
                </mxCell>
                <mxCell id="451" value="operations" style="text;html=1;strokeColor=none;fillColor=none;align=center;verticalAlign=middle;spacingLeft=4;spacingRight=4;overflow=hidden;rotatable=0;points=[[0,0.5],[1,0.5]];portConstraint=eastwest;" parent="443" vertex="1">
                    <mxGeometry y="78" width="140" height="20" as="geometry"/>
                </mxCell>
                <mxCell id="471" style="edgeStyle=orthogonalEdgeStyle;html=1;entryX=0.447;entryY=1.031;entryDx=0;entryDy=0;entryPerimeter=0;endArrow=block;endFill=0;" parent="1" source="452" target="451" edge="1">
                    <mxGeometry relative="1" as="geometry"/>
                </mxCell>
                <mxCell id="452" value="Card" style="swimlane;fontStyle=0;align=center;verticalAlign=top;childLayout=stackLayout;horizontal=1;startSize=30;horizontalStack=0;resizeParent=1;resizeParentMax=0;resizeLast=0;collapsible=0;marginBottom=0;html=1;" parent="1" vertex="1">
                    <mxGeometry x="1136" y="880" width="140" height="158" as="geometry"/>
                </mxCell>
                <mxCell id="453" value="attributes" style="text;html=1;strokeColor=none;fillColor=none;align=center;verticalAlign=middle;spacingLeft=4;spacingRight=4;overflow=hidden;rotatable=0;points=[[0,0.5],[1,0.5]];portConstraint=eastwest;" parent="452" vertex="1">
                    <mxGeometry y="30" width="140" height="20" as="geometry"/>
                </mxCell>
                <mxCell id="454" value="id" style="text;html=1;strokeColor=none;fillColor=none;align=left;verticalAlign=middle;spacingLeft=4;spacingRight=4;overflow=hidden;rotatable=0;points=[[0,0.5],[1,0.5]];portConstraint=eastwest;" parent="452" vertex="1">
                    <mxGeometry y="50" width="140" height="20" as="geometry"/>
                </mxCell>
                <mxCell id="469" value="number: integer" style="text;html=1;strokeColor=none;fillColor=none;align=left;verticalAlign=middle;spacingLeft=4;spacingRight=4;overflow=hidden;rotatable=0;points=[[0,0.5],[1,0.5]];portConstraint=eastwest;" parent="452" vertex="1">
                    <mxGeometry y="70" width="140" height="20" as="geometry"/>
                </mxCell>
                <mxCell id="468" value="cvv: integer" style="text;html=1;strokeColor=none;fillColor=none;align=left;verticalAlign=middle;spacingLeft=4;spacingRight=4;overflow=hidden;rotatable=0;points=[[0,0.5],[1,0.5]];portConstraint=eastwest;" parent="452" vertex="1">
                    <mxGeometry y="90" width="140" height="20" as="geometry"/>
                </mxCell>
                <mxCell id="467" value="date: string" style="text;html=1;strokeColor=none;fillColor=none;align=left;verticalAlign=middle;spacingLeft=4;spacingRight=4;overflow=hidden;rotatable=0;points=[[0,0.5],[1,0.5]];portConstraint=eastwest;" parent="452" vertex="1">
                    <mxGeometry y="110" width="140" height="20" as="geometry"/>
                </mxCell>
                <mxCell id="455" value="" style="line;strokeWidth=1;fillColor=none;align=left;verticalAlign=middle;spacingTop=-1;spacingLeft=3;spacingRight=3;rotatable=0;labelPosition=right;points=[];portConstraint=eastwest;" parent="452" vertex="1">
                    <mxGeometry y="130" width="140" height="8" as="geometry"/>
                </mxCell>
                <mxCell id="456" value="operations" style="text;html=1;strokeColor=none;fillColor=none;align=center;verticalAlign=middle;spacingLeft=4;spacingRight=4;overflow=hidden;rotatable=0;points=[[0,0.5],[1,0.5]];portConstraint=eastwest;" parent="452" vertex="1">
                    <mxGeometry y="138" width="140" height="20" as="geometry"/>
                </mxCell>
                <mxCell id="472" style="edgeStyle=orthogonalEdgeStyle;html=1;endArrow=block;endFill=0;" parent="1" source="457" edge="1">
                    <mxGeometry relative="1" as="geometry">
                        <mxPoint x="1406" y="790" as="targetPoint"/>
                    </mxGeometry>
                </mxCell>
                <mxCell id="457" value="PayPal" style="swimlane;fontStyle=0;align=center;verticalAlign=top;childLayout=stackLayout;horizontal=1;startSize=30;horizontalStack=0;resizeParent=1;resizeParentMax=0;resizeLast=0;collapsible=0;marginBottom=0;html=1;" parent="1" vertex="1">
                    <mxGeometry x="1336" y="880" width="140" height="118" as="geometry"/>
                </mxCell>
                <mxCell id="458" value="attributes" style="text;html=1;strokeColor=none;fillColor=none;align=center;verticalAlign=middle;spacingLeft=4;spacingRight=4;overflow=hidden;rotatable=0;points=[[0,0.5],[1,0.5]];portConstraint=eastwest;" parent="457" vertex="1">
                    <mxGeometry y="30" width="140" height="20" as="geometry"/>
                </mxCell>
                <mxCell id="459" value="id" style="text;html=1;strokeColor=none;fillColor=none;align=left;verticalAlign=middle;spacingLeft=4;spacingRight=4;overflow=hidden;rotatable=0;points=[[0,0.5],[1,0.5]];portConstraint=eastwest;" parent="457" vertex="1">
                    <mxGeometry y="50" width="140" height="20" as="geometry"/>
                </mxCell>
                <mxCell id="470" value="email: string" style="text;html=1;strokeColor=none;fillColor=none;align=left;verticalAlign=middle;spacingLeft=4;spacingRight=4;overflow=hidden;rotatable=0;points=[[0,0.5],[1,0.5]];portConstraint=eastwest;" parent="457" vertex="1">
                    <mxGeometry y="70" width="140" height="20" as="geometry"/>
                </mxCell>
                <mxCell id="460" value="" style="line;strokeWidth=1;fillColor=none;align=left;verticalAlign=middle;spacingTop=-1;spacingLeft=3;spacingRight=3;rotatable=0;labelPosition=right;points=[];portConstraint=eastwest;" parent="457" vertex="1">
                    <mxGeometry y="90" width="140" height="8" as="geometry"/>
                </mxCell>
                <mxCell id="461" value="operations" style="text;html=1;strokeColor=none;fillColor=none;align=center;verticalAlign=middle;spacingLeft=4;spacingRight=4;overflow=hidden;rotatable=0;points=[[0,0.5],[1,0.5]];portConstraint=eastwest;" parent="457" vertex="1">
                    <mxGeometry y="98" width="140" height="20" as="geometry"/>
                </mxCell>
                <mxCell id="473" style="edgeStyle=orthogonalEdgeStyle;html=1;exitX=0.5;exitY=0;exitDx=0;exitDy=0;entryX=0.535;entryY=1.06;entryDx=0;entryDy=0;entryPerimeter=0;endArrow=block;endFill=0;" parent="1" source="462" target="451" edge="1">
                    <mxGeometry relative="1" as="geometry">
                        <Array as="points">
                            <mxPoint x="1571" y="830"/>
                            <mxPoint x="1411" y="830"/>
                        </Array>
                    </mxGeometry>
                </mxCell>
                <mxCell id="462" value="Cash" style="swimlane;fontStyle=0;align=center;verticalAlign=top;childLayout=stackLayout;horizontal=1;startSize=30;horizontalStack=0;resizeParent=1;resizeParentMax=0;resizeLast=0;collapsible=0;marginBottom=0;html=1;" parent="1" vertex="1">
                    <mxGeometry x="1501" y="880" width="140" height="98" as="geometry"/>
                </mxCell>
                <mxCell id="463" value="attributes" style="text;html=1;strokeColor=none;fillColor=none;align=center;verticalAlign=middle;spacingLeft=4;spacingRight=4;overflow=hidden;rotatable=0;points=[[0,0.5],[1,0.5]];portConstraint=eastwest;" parent="462" vertex="1">
                    <mxGeometry y="30" width="140" height="20" as="geometry"/>
                </mxCell>
                <mxCell id="464" value="id" style="text;html=1;strokeColor=none;fillColor=none;align=left;verticalAlign=middle;spacingLeft=4;spacingRight=4;overflow=hidden;rotatable=0;points=[[0,0.5],[1,0.5]];portConstraint=eastwest;" parent="462" vertex="1">
                    <mxGeometry y="50" width="140" height="20" as="geometry"/>
                </mxCell>
                <mxCell id="465" value="" style="line;strokeWidth=1;fillColor=none;align=left;verticalAlign=middle;spacingTop=-1;spacingLeft=3;spacingRight=3;rotatable=0;labelPosition=right;points=[];portConstraint=eastwest;" parent="462" vertex="1">
                    <mxGeometry y="70" width="140" height="8" as="geometry"/>
                </mxCell>
                <mxCell id="466" value="operations" style="text;html=1;strokeColor=none;fillColor=none;align=center;verticalAlign=middle;spacingLeft=4;spacingRight=4;overflow=hidden;rotatable=0;points=[[0,0.5],[1,0.5]];portConstraint=eastwest;" parent="462" vertex="1">
                    <mxGeometry y="78" width="140" height="20" as="geometry"/>
                </mxCell>
                <mxCell id="516" style="edgeStyle=orthogonalEdgeStyle;html=1;endArrow=block;endFill=0;" parent="1" source="474" edge="1">
                    <mxGeometry relative="1" as="geometry">
                        <mxPoint x="380" y="850" as="targetPoint"/>
                        <Array as="points">
                            <mxPoint x="100" y="870"/>
                            <mxPoint x="380" y="870"/>
                        </Array>
                    </mxGeometry>
                </mxCell>
                <mxCell id="474" value="UberX" style="swimlane;fontStyle=0;align=center;verticalAlign=top;childLayout=stackLayout;horizontal=1;startSize=30;horizontalStack=0;resizeParent=1;resizeParentMax=0;resizeLast=0;collapsible=0;marginBottom=0;html=1;" parent="1" vertex="1">
                    <mxGeometry x="40" y="950" width="140" height="138" as="geometry"/>
                </mxCell>
                <mxCell id="475" value="attributes" style="text;html=1;strokeColor=none;fillColor=none;align=center;verticalAlign=middle;spacingLeft=4;spacingRight=4;overflow=hidden;rotatable=0;points=[[0,0.5],[1,0.5]];portConstraint=eastwest;" parent="474" vertex="1">
                    <mxGeometry y="30" width="140" height="20" as="geometry"/>
                </mxCell>
                <mxCell id="476" value="id" style="text;html=1;strokeColor=none;fillColor=none;align=left;verticalAlign=middle;spacingLeft=4;spacingRight=4;overflow=hidden;rotatable=0;points=[[0,0.5],[1,0.5]];portConstraint=eastwest;" parent="474" vertex="1">
                    <mxGeometry y="50" width="140" height="20" as="geometry"/>
                </mxCell>
                <mxCell id="477" value="brand: String" style="text;html=1;strokeColor=none;fillColor=none;align=left;verticalAlign=middle;spacingLeft=4;spacingRight=4;overflow=hidden;rotatable=0;points=[[0,0.5],[1,0.5]];portConstraint=eastwest;" parent="474" vertex="1">
                    <mxGeometry y="70" width="140" height="20" as="geometry"/>
                </mxCell>
                <mxCell id="478" value="model: String" style="text;html=1;strokeColor=none;fillColor=none;align=left;verticalAlign=middle;spacingLeft=4;spacingRight=4;overflow=hidden;rotatable=0;points=[[0,0.5],[1,0.5]];portConstraint=eastwest;" parent="474" vertex="1">
                    <mxGeometry y="90" width="140" height="20" as="geometry"/>
                </mxCell>
                <mxCell id="480" value="" style="line;strokeWidth=1;fillColor=none;align=left;verticalAlign=middle;spacingTop=-1;spacingLeft=3;spacingRight=3;rotatable=0;labelPosition=right;points=[];portConstraint=eastwest;" parent="474" vertex="1">
                    <mxGeometry y="110" width="140" height="8" as="geometry"/>
                </mxCell>
                <mxCell id="481" value="operations" style="text;html=1;strokeColor=none;fillColor=none;align=center;verticalAlign=middle;spacingLeft=4;spacingRight=4;overflow=hidden;rotatable=0;points=[[0,0.5],[1,0.5]];portConstraint=eastwest;" parent="474" vertex="1">
                    <mxGeometry y="118" width="140" height="20" as="geometry"/>
                </mxCell>
                <mxCell id="517" style="edgeStyle=orthogonalEdgeStyle;html=1;entryX=0.428;entryY=1.018;entryDx=0;entryDy=0;entryPerimeter=0;endArrow=block;endFill=0;" parent="1" source="482" target="505" edge="1">
                    <mxGeometry relative="1" as="geometry">
                        <Array as="points">
                            <mxPoint x="270" y="890"/>
                            <mxPoint x="400" y="890"/>
                        </Array>
                    </mxGeometry>
                </mxCell>
                <mxCell id="482" value="UberPool" style="swimlane;fontStyle=0;align=center;verticalAlign=top;childLayout=stackLayout;horizontal=1;startSize=30;horizontalStack=0;resizeParent=1;resizeParentMax=0;resizeLast=0;collapsible=0;marginBottom=0;html=1;" parent="1" vertex="1">
                    <mxGeometry x="200" y="950" width="140" height="138" as="geometry"/>
                </mxCell>
                <mxCell id="483" value="attributes" style="text;html=1;strokeColor=none;fillColor=none;align=center;verticalAlign=middle;spacingLeft=4;spacingRight=4;overflow=hidden;rotatable=0;points=[[0,0.5],[1,0.5]];portConstraint=eastwest;" parent="482" vertex="1">
                    <mxGeometry y="30" width="140" height="20" as="geometry"/>
                </mxCell>
                <mxCell id="484" value="id" style="text;html=1;strokeColor=none;fillColor=none;align=left;verticalAlign=middle;spacingLeft=4;spacingRight=4;overflow=hidden;rotatable=0;points=[[0,0.5],[1,0.5]];portConstraint=eastwest;" parent="482" vertex="1">
                    <mxGeometry y="50" width="140" height="20" as="geometry"/>
                </mxCell>
                <mxCell id="485" value="brand: string" style="text;html=1;strokeColor=none;fillColor=none;align=left;verticalAlign=middle;spacingLeft=4;spacingRight=4;overflow=hidden;rotatable=0;points=[[0,0.5],[1,0.5]];portConstraint=eastwest;" parent="482" vertex="1">
                    <mxGeometry y="70" width="140" height="20" as="geometry"/>
                </mxCell>
                <mxCell id="506" value="brand: String" style="text;html=1;strokeColor=none;fillColor=none;align=left;verticalAlign=middle;spacingLeft=4;spacingRight=4;overflow=hidden;rotatable=0;points=[[0,0.5],[1,0.5]];portConstraint=eastwest;" parent="482" vertex="1">
                    <mxGeometry y="90" width="140" height="20" as="geometry"/>
                </mxCell>
                <mxCell id="486" value="" style="line;strokeWidth=1;fillColor=none;align=left;verticalAlign=middle;spacingTop=-1;spacingLeft=3;spacingRight=3;rotatable=0;labelPosition=right;points=[];portConstraint=eastwest;" parent="482" vertex="1">
                    <mxGeometry y="110" width="140" height="8" as="geometry"/>
                </mxCell>
                <mxCell id="487" value="operations" style="text;html=1;strokeColor=none;fillColor=none;align=center;verticalAlign=middle;spacingLeft=4;spacingRight=4;overflow=hidden;rotatable=0;points=[[0,0.5],[1,0.5]];portConstraint=eastwest;" parent="482" vertex="1">
                    <mxGeometry y="118" width="140" height="20" as="geometry"/>
                </mxCell>
                <mxCell id="518" style="edgeStyle=orthogonalEdgeStyle;html=1;endArrow=block;endFill=0;entryX=0.568;entryY=1.026;entryDx=0;entryDy=0;entryPerimeter=0;exitX=0.5;exitY=0;exitDx=0;exitDy=0;" parent="1" source="488" target="505" edge="1">
                    <mxGeometry relative="1" as="geometry">
                        <mxPoint x="430" y="880" as="targetPoint"/>
                        <Array as="points">
                            <mxPoint x="520" y="890"/>
                            <mxPoint x="420" y="890"/>
                        </Array>
                    </mxGeometry>
                </mxCell>
                <mxCell id="488" value="UberBlack" style="swimlane;fontStyle=0;align=center;verticalAlign=top;childLayout=stackLayout;horizontal=1;startSize=30;horizontalStack=0;resizeParent=1;resizeParentMax=0;resizeLast=0;collapsible=0;marginBottom=0;html=1;" parent="1" vertex="1">
                    <mxGeometry x="360" y="950" width="320" height="138" as="geometry"/>
                </mxCell>
                <mxCell id="489" value="attributes" style="text;html=1;strokeColor=none;fillColor=none;align=center;verticalAlign=middle;spacingLeft=4;spacingRight=4;overflow=hidden;rotatable=0;points=[[0,0.5],[1,0.5]];portConstraint=eastwest;" parent="488" vertex="1">
                    <mxGeometry y="30" width="320" height="20" as="geometry"/>
                </mxCell>
                <mxCell id="490" value="id" style="text;html=1;strokeColor=none;fillColor=none;align=left;verticalAlign=middle;spacingLeft=4;spacingRight=4;overflow=hidden;rotatable=0;points=[[0,0.5],[1,0.5]];portConstraint=eastwest;" parent="488" vertex="1">
                    <mxGeometry y="50" width="320" height="20" as="geometry"/>
                </mxCell>
                <mxCell id="507" value="typeCarAccepted: Map&amp;lt;String ArrayList &amp;lt;String Integer&amp;gt;&amp;gt;" style="text;html=1;strokeColor=none;fillColor=none;align=left;verticalAlign=middle;spacingLeft=4;spacingRight=4;overflow=hidden;rotatable=0;points=[[0,0.5],[1,0.5]];portConstraint=eastwest;" parent="488" vertex="1">
                    <mxGeometry y="70" width="320" height="20" as="geometry"/>
                </mxCell>
                <mxCell id="508" value="seatsMaterial: ArrayList&amp;lt;String&amp;gt; = leather or vinyl" style="text;html=1;strokeColor=none;fillColor=none;align=left;verticalAlign=middle;spacingLeft=4;spacingRight=4;overflow=hidden;rotatable=0;points=[[0,0.5],[1,0.5]];portConstraint=eastwest;" parent="488" vertex="1">
                    <mxGeometry y="90" width="320" height="20" as="geometry"/>
                </mxCell>
                <mxCell id="491" value="" style="line;strokeWidth=1;fillColor=none;align=left;verticalAlign=middle;spacingTop=-1;spacingLeft=3;spacingRight=3;rotatable=0;labelPosition=right;points=[];portConstraint=eastwest;" parent="488" vertex="1">
                    <mxGeometry y="110" width="320" height="8" as="geometry"/>
                </mxCell>
                <mxCell id="492" value="operations" style="text;html=1;strokeColor=none;fillColor=none;align=center;verticalAlign=middle;spacingLeft=4;spacingRight=4;overflow=hidden;rotatable=0;points=[[0,0.5],[1,0.5]];portConstraint=eastwest;" parent="488" vertex="1">
                    <mxGeometry y="118" width="320" height="20" as="geometry"/>
                </mxCell>
                <mxCell id="522" style="edgeStyle=orthogonalEdgeStyle;html=1;entryX=0.5;entryY=1;entryDx=0;entryDy=0;endArrow=open;endFill=0;" parent="1" source="498" target="437" edge="1">
                    <mxGeometry relative="1" as="geometry"/>
                </mxCell>
                <mxCell id="528" style="edgeStyle=orthogonalEdgeStyle;html=1;endArrow=diamond;endFill=1;" parent="1" source="498" edge="1" target="523">
                    <mxGeometry relative="1" as="geometry">
                        <mxPoint x="810" y="440" as="targetPoint"/>
                        <Array as="points">
                            <mxPoint x="640" y="769"/>
                            <mxPoint x="640" y="590"/>
                            <mxPoint x="820" y="590"/>
                        </Array>
                    </mxGeometry>
                </mxCell>
                <mxCell id="498" value="Car" style="swimlane;fontStyle=0;align=center;verticalAlign=top;childLayout=stackLayout;horizontal=1;startSize=30;horizontalStack=0;resizeParent=1;resizeParentMax=0;resizeLast=0;collapsible=0;marginBottom=0;html=1;" parent="1" vertex="1">
                    <mxGeometry x="340" y="690" width="140" height="158" as="geometry"/>
                </mxCell>
                <mxCell id="499" value="attributes" style="text;html=1;strokeColor=none;fillColor=none;align=center;verticalAlign=middle;spacingLeft=4;spacingRight=4;overflow=hidden;rotatable=0;points=[[0,0.5],[1,0.5]];portConstraint=eastwest;" parent="498" vertex="1">
                    <mxGeometry y="30" width="140" height="20" as="geometry"/>
                </mxCell>
                <mxCell id="500" value="id" style="text;html=1;strokeColor=none;fillColor=none;align=left;verticalAlign=middle;spacingLeft=4;spacingRight=4;overflow=hidden;rotatable=0;points=[[0,0.5],[1,0.5]];portConstraint=eastwest;" parent="498" vertex="1">
                    <mxGeometry y="50" width="140" height="20" as="geometry"/>
                </mxCell>
                <mxCell id="501" value="license" style="text;html=1;strokeColor=none;fillColor=none;align=left;verticalAlign=middle;spacingLeft=4;spacingRight=4;overflow=hidden;rotatable=0;points=[[0,0.5],[1,0.5]];portConstraint=eastwest;" parent="498" vertex="1">
                    <mxGeometry y="70" width="140" height="20" as="geometry"/>
                </mxCell>
                <mxCell id="502" value="driver" style="text;html=1;strokeColor=none;fillColor=none;align=left;verticalAlign=middle;spacingLeft=4;spacingRight=4;overflow=hidden;rotatable=0;points=[[0,0.5],[1,0.5]];portConstraint=eastwest;" parent="498" vertex="1">
                    <mxGeometry y="90" width="140" height="20" as="geometry"/>
                </mxCell>
                <mxCell id="503" value="passengers" style="text;html=1;strokeColor=none;fillColor=none;align=left;verticalAlign=middle;spacingLeft=4;spacingRight=4;overflow=hidden;rotatable=0;points=[[0,0.5],[1,0.5]];portConstraint=eastwest;" parent="498" vertex="1">
                    <mxGeometry y="110" width="140" height="20" as="geometry"/>
                </mxCell>
                <mxCell id="504" value="" style="line;strokeWidth=1;fillColor=none;align=left;verticalAlign=middle;spacingTop=-1;spacingLeft=3;spacingRight=3;rotatable=0;labelPosition=right;points=[];portConstraint=eastwest;" parent="498" vertex="1">
                    <mxGeometry y="130" width="140" height="8" as="geometry"/>
                </mxCell>
                <mxCell id="505" value="operations" style="text;html=1;strokeColor=none;fillColor=none;align=center;verticalAlign=middle;spacingLeft=4;spacingRight=4;overflow=hidden;rotatable=0;points=[[0,0.5],[1,0.5]];portConstraint=eastwest;" parent="498" vertex="1">
                    <mxGeometry y="138" width="140" height="20" as="geometry"/>
                </mxCell>
                <mxCell id="519" style="edgeStyle=orthogonalEdgeStyle;html=1;entryX=0.714;entryY=1.05;entryDx=0;entryDy=0;entryPerimeter=0;endArrow=block;endFill=0;" parent="1" source="509" target="505" edge="1">
                    <mxGeometry relative="1" as="geometry">
                        <Array as="points">
                            <mxPoint x="870" y="870"/>
                            <mxPoint x="440" y="870"/>
                        </Array>
                    </mxGeometry>
                </mxCell>
                <mxCell id="509" value="UberVan" style="swimlane;fontStyle=0;align=center;verticalAlign=top;childLayout=stackLayout;horizontal=1;startSize=30;horizontalStack=0;resizeParent=1;resizeParentMax=0;resizeLast=0;collapsible=0;marginBottom=0;html=1;" parent="1" vertex="1">
                    <mxGeometry x="710" y="950" width="320" height="138" as="geometry"/>
                </mxCell>
                <mxCell id="510" value="attributes" style="text;html=1;strokeColor=none;fillColor=none;align=center;verticalAlign=middle;spacingLeft=4;spacingRight=4;overflow=hidden;rotatable=0;points=[[0,0.5],[1,0.5]];portConstraint=eastwest;" parent="509" vertex="1">
                    <mxGeometry y="30" width="320" height="20" as="geometry"/>
                </mxCell>
                <mxCell id="511" value="id" style="text;html=1;strokeColor=none;fillColor=none;align=left;verticalAlign=middle;spacingLeft=4;spacingRight=4;overflow=hidden;rotatable=0;points=[[0,0.5],[1,0.5]];portConstraint=eastwest;" parent="509" vertex="1">
                    <mxGeometry y="50" width="320" height="20" as="geometry"/>
                </mxCell>
                <mxCell id="512" value="typeCarAccepted: Map&amp;lt;String ArrayList &amp;lt;String Integer&amp;gt;&amp;gt;" style="text;html=1;strokeColor=none;fillColor=none;align=left;verticalAlign=middle;spacingLeft=4;spacingRight=4;overflow=hidden;rotatable=0;points=[[0,0.5],[1,0.5]];portConstraint=eastwest;" parent="509" vertex="1">
                    <mxGeometry y="70" width="320" height="20" as="geometry"/>
                </mxCell>
                <mxCell id="513" value="seatsMaterial: ArrayList&amp;lt;String&amp;gt; = leather or vinyl" style="text;html=1;strokeColor=none;fillColor=none;align=left;verticalAlign=middle;spacingLeft=4;spacingRight=4;overflow=hidden;rotatable=0;points=[[0,0.5],[1,0.5]];portConstraint=eastwest;" parent="509" vertex="1">
                    <mxGeometry y="90" width="320" height="20" as="geometry"/>
                </mxCell>
                <mxCell id="514" value="" style="line;strokeWidth=1;fillColor=none;align=left;verticalAlign=middle;spacingTop=-1;spacingLeft=3;spacingRight=3;rotatable=0;labelPosition=right;points=[];portConstraint=eastwest;" parent="509" vertex="1">
                    <mxGeometry y="110" width="320" height="8" as="geometry"/>
                </mxCell>
                <mxCell id="515" value="operations" style="text;html=1;strokeColor=none;fillColor=none;align=center;verticalAlign=middle;spacingLeft=4;spacingRight=4;overflow=hidden;rotatable=0;points=[[0,0.5],[1,0.5]];portConstraint=eastwest;" parent="509" vertex="1">
                    <mxGeometry y="118" width="320" height="20" as="geometry"/>
                </mxCell>
                <mxCell id="531" style="edgeStyle=orthogonalEdgeStyle;html=1;entryX=0.5;entryY=1;entryDx=0;entryDy=0;endArrow=open;endFill=0;" parent="1" source="523" target="439" edge="1">
                    <mxGeometry relative="1" as="geometry"/>
                </mxCell>
                <mxCell id="523" value="Trip" style="swimlane;fontStyle=0;align=center;verticalAlign=top;childLayout=stackLayout;horizontal=1;startSize=40;horizontalStack=0;resizeParent=1;resizeParentMax=0;resizeLast=0;collapsible=0;marginBottom=0;html=1;" parent="1" vertex="1">
                    <mxGeometry x="770" y="370" width="140" height="200" as="geometry"/>
                </mxCell>
                <mxCell id="532" value="id" style="text;html=1;strokeColor=none;fillColor=none;align=left;verticalAlign=middle;spacingLeft=4;spacingRight=4;overflow=hidden;rotatable=0;points=[[0,0.5],[1,0.5]];portConstraint=eastwest;" vertex="1" parent="523">
                    <mxGeometry y="40" width="140" height="20" as="geometry"/>
                </mxCell>
                <mxCell id="533" value="user: User" style="text;html=1;strokeColor=none;fillColor=none;align=left;verticalAlign=middle;spacingLeft=4;spacingRight=4;overflow=hidden;rotatable=0;points=[[0,0.5],[1,0.5]];portConstraint=eastwest;" vertex="1" parent="523">
                    <mxGeometry y="60" width="140" height="20" as="geometry"/>
                </mxCell>
                <mxCell id="534" value="car:&amp;nbsp; Car" style="text;html=1;strokeColor=none;fillColor=none;align=left;verticalAlign=middle;spacingLeft=4;spacingRight=4;overflow=hidden;rotatable=0;points=[[0,0.5],[1,0.5]];portConstraint=eastwest;" vertex="1" parent="523">
                    <mxGeometry y="80" width="140" height="20" as="geometry"/>
                </mxCell>
                <mxCell id="535" value="route: Route" style="text;html=1;strokeColor=none;fillColor=none;align=left;verticalAlign=middle;spacingLeft=4;spacingRight=4;overflow=hidden;rotatable=0;points=[[0,0.5],[1,0.5]];portConstraint=eastwest;" vertex="1" parent="523">
                    <mxGeometry y="100" width="140" height="20" as="geometry"/>
                </mxCell>
                <mxCell id="536" value="amount: Double" style="text;html=1;strokeColor=none;fillColor=none;align=left;verticalAlign=middle;spacingLeft=4;spacingRight=4;overflow=hidden;rotatable=0;points=[[0,0.5],[1,0.5]];portConstraint=eastwest;" vertex="1" parent="523">
                    <mxGeometry y="120" width="140" height="20" as="geometry"/>
                </mxCell>
                <mxCell id="537" value="payment: Payment" style="text;html=1;strokeColor=none;fillColor=none;align=left;verticalAlign=middle;spacingLeft=4;spacingRight=4;overflow=hidden;rotatable=0;points=[[0,0.5],[1,0.5]];portConstraint=eastwest;" vertex="1" parent="523">
                    <mxGeometry y="140" width="140" height="20" as="geometry"/>
                </mxCell>
                <mxCell id="538" value="progress: Double" style="text;html=1;strokeColor=none;fillColor=none;align=left;verticalAlign=middle;spacingLeft=4;spacingRight=4;overflow=hidden;rotatable=0;points=[[0,0.5],[1,0.5]];portConstraint=eastwest;" vertex="1" parent="523">
                    <mxGeometry y="160" width="140" height="20" as="geometry"/>
                </mxCell>
                <mxCell id="539" value="completed: Boolean" style="text;html=1;strokeColor=none;fillColor=none;align=left;verticalAlign=middle;spacingLeft=4;spacingRight=4;overflow=hidden;rotatable=0;points=[[0,0.5],[1,0.5]];portConstraint=eastwest;" vertex="1" parent="523">
                    <mxGeometry y="180" width="140" height="20" as="geometry"/>
                </mxCell>
                <mxCell id="529" style="edgeStyle=orthogonalEdgeStyle;html=1;entryX=0.5;entryY=1;entryDx=0;entryDy=0;endArrow=diamond;endFill=1;" parent="1" source="525" target="523" edge="1">
                    <mxGeometry relative="1" as="geometry"/>
                </mxCell>
                <mxCell id="525" value="Route" style="swimlane;fontStyle=0;align=center;verticalAlign=top;childLayout=stackLayout;horizontal=1;startSize=40;horizontalStack=0;resizeParent=1;resizeParentMax=0;resizeLast=0;collapsible=0;marginBottom=0;html=1;" parent="1" vertex="1">
                    <mxGeometry x="770" y="660" width="140" height="100" as="geometry"/>
                </mxCell>
                <mxCell id="540" value="id" style="text;html=1;strokeColor=none;fillColor=none;align=left;verticalAlign=middle;spacingLeft=4;spacingRight=4;overflow=hidden;rotatable=0;points=[[0,0.5],[1,0.5]];portConstraint=eastwest;" vertex="1" parent="525">
                    <mxGeometry y="40" width="140" height="20" as="geometry"/>
                </mxCell>
                <mxCell id="541" value="start: []" style="text;html=1;strokeColor=none;fillColor=none;align=left;verticalAlign=middle;spacingLeft=4;spacingRight=4;overflow=hidden;rotatable=0;points=[[0,0.5],[1,0.5]];portConstraint=eastwest;" vertex="1" parent="525">
                    <mxGeometry y="60" width="140" height="20" as="geometry"/>
                </mxCell>
                <mxCell id="542" value="end: []" style="text;html=1;strokeColor=none;fillColor=none;align=left;verticalAlign=middle;spacingLeft=4;spacingRight=4;overflow=hidden;rotatable=0;points=[[0,0.5],[1,0.5]];portConstraint=eastwest;" vertex="1" parent="525">
                    <mxGeometry y="80" width="140" height="20" as="geometry"/>
                </mxCell>
            </root>
        </mxGraphModel>
    </diagram>
</mxfile>